<?xml version="1.0" standalone="no"?>
<!DOCTYPE svg PUBLIC "-//W3C//DTD SVG 20010904//EN"
 "http://www.w3.org/TR/2001/REC-SVG-20010904/DTD/svg10.dtd">
<svg version="1.0" xmlns="http://www.w3.org/2000/svg"
 width="499.000000pt" height="499.000000pt" viewBox="0 0 499.000000 499.000000"
 preserveAspectRatio="xMidYMid meet">

<g transform="translate(0.000000,499.000000) scale(0.100000,-0.100000)"
fill="#000000" stroke="none">
<path d="M3405 3311 c-150 -41 -244 -89 -355 -181 l-59 -50 -915 0 -915 0 -27
-24 c-37 -31 -38 -84 -4 -121 23 -24 28 -25 148 -25 123 0 124 0 153 -29 37
-38 39 -82 4 -116 l-24 -25 -283 0 c-169 0 -298 -4 -321 -11 -49 -13 -73 -60
-55 -109 19 -57 39 -60 406 -60 l329 0 21 -23 c13 -14 22 -36 22 -54 0 -88
-18 -93 -303 -93 l-234 0 -27 -26 c-35 -36 -34 -77 3 -115 l29 -29 182 0 c111
0 189 -4 202 -11 29 -15 50 -72 39 -103 -21 -55 -30 -56 -354 -56 l-299 0 -29
-29 c-16 -16 -29 -39 -29 -51 0 -29 26 -76 45 -84 9 -3 524 -6 1145 -6 l1128
0 48 -41 c58 -48 222 -129 314 -155 99 -28 319 -26 422 3 291 84 499 286 590
573 20 65 23 95 23 230 0 175 -12 235 -71 359 -105 222 -305 392 -539 457 -95
26 -322 29 -410 5z"/>
<path d="M780 3048 c-25 -28 -26 -78 -1 -109 18 -22 26 -24 121 -24 95 0 103
2 121 24 26 32 25 82 -4 109 -21 19 -34 22 -120 22 -86 0 -98 -2 -117 -22z"/>
<path d="M578 2360 c-25 -26 -29 -36 -24 -63 12 -61 35 -72 142 -72 92 0 97 1
120 28 32 38 31 72 -5 108 -28 28 -34 29 -116 29 -83 0 -88 -1 -117 -30z"/>
</g>
</svg>
